<?xml version="1.0" standalone="no"?>
<!DOCTYPE svg PUBLIC "-//W3C//DTD SVG 20010904//EN"
 "http://www.w3.org/TR/2001/REC-SVG-20010904/DTD/svg10.dtd">
<svg version="1.0" xmlns="http://www.w3.org/2000/svg"
 width="500.000000pt" height="500.000000pt" viewBox="0 0 500.000000 500.000000"
 preserveAspectRatio="xMidYMid meet">

<g transform="translate(0.000000,500.000000) scale(0.100000,-0.100000)"
fill="ffffff" stroke="none">
<path d="M686 2893 c-38 -119 -95 -345 -90 -358 5 -13 39 -15 204 -15 146 0
200 3 207 13 12 14 113 365 113 390 0 15 -19 17 -209 17 l-209 0 -16 -47z"/>
<path d="M1495 2847 c-3 -7 -4 -67 -3 -133 l3 -119 89 0 c63 0 91 4 94 13 3 9
-17 12 -77 12 l-81 0 0 45 0 45 70 0 c56 0 70 3 70 15 0 12 -14 15 -70 15
l-70 0 0 45 0 45 81 0 c60 0 80 3 77 13 -7 18 -177 23 -183 4z"/>
<path d="M1762 2728 l3 -133 83 -3 c68 -2 82 0 82 13 0 12 -14 15 -70 15 l-69
0 -3 117 c-2 84 -7 118 -16 121 -10 3 -12 -25 -10 -130z"/>
<path d="M2000 2725 l0 -135 90 0 c73 0 90 3 90 15 0 12 -15 15 -75 15 l-75 0
0 45 0 45 71 0 c52 0 70 3 67 13 -3 7 -29 13 -71 15 l-67 3 0 44 0 45 75 0
c60 0 75 3 75 15 0 12 -17 15 -90 15 l-90 0 0 -135z"/>
<path d="M2323 2845 c-97 -42 -95 -200 2 -241 44 -18 77 -18 120 0 39 17 50
44 13 30 -13 -4 -47 -8 -76 -8 -47 -1 -57 3 -78 27 -17 20 -24 40 -24 72 0 32
7 52 24 72 21 24 31 28 78 27 29 0 63 -4 76 -8 37 -14 26 13 -13 30 -43 17
-80 17 -122 -1z"/>
<path d="M2527 2854 c-14 -14 6 -24 48 -24 l44 0 3 -117 c2 -70 7 -118 13
-118 6 0 11 48 13 118 l3 117 44 0 c33 0 45 4 45 15 0 12 -18 15 -103 15 -57
0 -107 -3 -110 -6z"/>
<path d="M2812 2730 c2 -78 7 -130 13 -130 6 0 11 22 13 50 l3 50 50 0 c70 0
86 -11 95 -65 6 -43 16 -56 29 -35 9 15 -6 79 -22 95 -13 13 -12 18 6 41 24
30 26 43 10 77 -16 35 -49 47 -130 47 l-70 0 3 -130z m160 83 c22 -20 23 -41
1 -65 -12 -13 -31 -18 -75 -18 l-58 0 0 50 0 50 57 0 c38 0 62 -5 75 -17z"/>
<path d="M3163 2845 c-69 -30 -95 -130 -50 -196 43 -64 134 -75 196 -23 77 64
53 187 -42 223 -37 14 -65 13 -104 -4z m129 -43 c27 -25 31 -36 31 -77 0 -42
-4 -52 -33 -78 -29 -26 -38 -29 -79 -24 -60 7 -91 41 -91 100 0 69 36 105 107
106 22 1 43 -8 65 -27z"/>
<path d="M3447 2853 c-4 -3 -7 -64 -7 -135 0 -99 3 -129 13 -126 8 3 14 39 17
114 l5 109 79 -113 c104 -148 111 -147 111 21 0 160 -18 176 -25 22 l-5 -110
-79 113 c-74 104 -92 122 -109 105z"/>
<path d="M3747 2854 c-8 -9 8 -38 55 -100 34 -45 38 -57 38 -108 0 -79 23 -71
30 11 4 51 11 68 48 116 39 52 55 93 32 85 -5 -1 -26 -27 -47 -57 -21 -30 -42
-56 -48 -58 -5 -2 -25 20 -44 47 -39 56 -55 73 -64 64z"/>
<path d="M4090 2842 c-64 -31 -89 -125 -51 -188 21 -34 75 -64 115 -64 41 0
102 28 89 41 -8 8 -17 8 -31 0 -46 -24 -129 -3 -152 38 -5 11 -10 36 -10 56 0
20 5 45 10 56 23 41 106 62 152 38 14 -8 23 -8 31 0 7 7 0 15 -26 26 -47 20
-84 19 -127 -3z"/>
<path d="M1101 2683 c-33 -124 -36 -144 -20 -154 19 -12 206 -12 214 0 7 13
65 207 65 221 0 6 -44 10 -119 10 l-119 0 -21 -77z"/>
<path d="M560 2438 c-19 -48 -52 -189 -46 -203 4 -12 26 -15 110 -15 90 0 107
3 114 18 17 32 62 204 57 213 -4 5 -56 9 -116 9 -104 0 -110 -1 -119 -22z"/>
<path d="M853 2448 c-5 -7 -24 -69 -42 -138 -18 -69 -41 -152 -50 -185 -10
-33 -16 -66 -13 -73 3 -9 54 -12 207 -12 182 0 204 2 209 17 22 56 106 379
102 390 -7 18 -399 19 -413 1z"/>
<path d="M1494 2417 c-2 -7 -3 -67 -2 -132 2 -84 7 -120 16 -123 9 -3 12 12
12 52 l0 56 59 0 c66 0 79 -9 88 -64 6 -41 20 -55 29 -31 9 22 -14 95 -30 101
-10 4 -7 12 10 29 41 41 28 95 -27 114 -45 16 -148 14 -155 -2z m160 -33 c21
-20 20 -43 -1 -66 -12 -13 -31 -18 -75 -18 l-58 0 0 50 0 50 59 0 c41 0 65 -5
75 -16z"/>
<path d="M1787 2423 c-13 -13 -7 -163 8 -199 28 -67 124 -82 179 -27 25 24 26
31 26 130 0 79 -3 104 -12 101 -9 -3 -15 -36 -18 -99 -3 -52 -10 -102 -16
-112 -17 -29 -84 -34 -114 -9 -23 19 -25 28 -28 121 -4 94 -8 111 -25 94z"/>
<path d="M2102 2298 l3 -133 83 -3 c68 -2 82 0 82 13 0 12 -14 15 -70 15 l-69
0 -3 117 c-2 84 -7 118 -16 121 -10 3 -12 -25 -10 -130z"/>
<path d="M2344 2417 c-2 -7 -3 -67 -2 -133 l3 -119 83 -3 c68 -2 82 0 82 13 0
12 -14 15 -70 15 l-70 0 0 120 c0 76 -4 120 -10 120 -6 0 -13 -6 -16 -13z"/>
<path d="M2586 2408 c-8 -30 -8 -196 0 -226 6 -22 10 -23 92 -20 57 2 87 7 90
16 3 9 -17 12 -77 12 l-81 0 0 45 0 45 70 0 c56 0 70 3 70 15 0 12 -14 15 -70
15 l-70 0 0 45 0 45 81 0 c60 0 80 3 77 13 -3 8 -33 13 -90 15 -82 3 -86 2
-92 -20z"/>
<path d="M2852 2301 c2 -79 7 -131 13 -131 6 0 11 22 13 50 l3 50 53 0 c66 0
86 -15 93 -68 6 -45 19 -56 25 -19 5 31 -9 80 -26 89 -12 7 -10 13 10 33 30
30 30 56 0 92 -22 25 -31 28 -105 31 l-82 4 3 -131z m156 83 c26 -18 28 -41 5
-66 -12 -13 -31 -18 -75 -18 l-58 0 0 50 0 50 53 0 c31 0 61 -6 75 -16z"/>
</g>
</svg>
